<?xml version="1.0" encoding="iso-8859-1"?>
<!-- Generator: Adobe Illustrator 19.0.0, SVG Export Plug-In . SVG Version: 6.00 Build 0)  -->
<svg version="1.1" id="Layer_1" xmlns="http://www.w3.org/2000/svg" xmlns:xlink="http://www.w3.org/1999/xlink" x="0px" y="0px"
	 viewBox="0 0 305.424 305.424" style="enable-background:new 0 0 305.424 305.424;" xml:space="preserve">
<g>
	<g id="mobile-shop-shopping-online-smartphone_1_">
		<path style="fill:#FFFFFF;" d="M102.175,128.504c0.164,1.001,0.31,2.016,0.31,3.064v-2.754L102.175,128.504z"/>
		<path style="fill:#F8CF26;" d="M183.178,56.386c5.183,0,9.398-4.215,9.398-9.398V32.892H173.78v14.097
			C173.78,52.171,177.995,56.386,183.178,56.386z"/>
		<polygon style="fill:#3ADDBE;" points="183.079,192.652 186.213,173.857 150.319,173.857 153.453,192.652 		"/>
		<path style="fill:#3ADDBE;" d="M131.491,220.845h75.181V84.579h-75.181V220.845z M153.199,123.546l11.183,10.774V98.676h9.398
			v35.645l10.366-10.774l6.442,6.644l-18.899,18.795c-0.916,0.916-2.171,1.377-3.374,1.377c-1.203,0-2.429-0.46-3.346-1.377
			l-18.603-18.795L153.199,123.546z M141.185,166.123c0.893-1.057,2.208-1.663,3.59-1.663h46.988c1.381,0,2.692,0.606,3.585,1.663
			c0.893,1.057,1.273,2.448,1.048,3.811l-4.699,28.193c-0.376,2.26-2.34,3.924-4.633,3.924h-37.591
			c-2.298,0-4.257-1.663-4.633-3.924l-4.699-28.193C139.911,168.571,140.292,167.175,141.185,166.123z"/>
		<path style="fill:#FFFFFF;" d="M103.298,169.158v-37.591c0,10.366-8.43,18.795-18.795,18.795
			C94.868,150.363,103.298,158.792,103.298,169.158z"/>
		<path style="fill:#F8CF26;" d="M126.792,56.386c5.183,0,9.398-4.215,9.398-9.398V32.892h-18.795v14.097
			C117.394,52.171,121.609,56.386,126.792,56.386z"/>
		<path style="fill:#F78B28;" d="M196.462,59.29c-3.449,3.947-8.458,6.494-14.097,6.494s-10.648-2.547-14.096-6.494
			c-3.449,3.947-8.458,6.494-14.097,6.494s-10.648-2.547-14.096-6.494c-3.449,3.947-8.049,6.494-13.692,6.494
			c-5.643,0-8.989-2.547-13.688-6.494v175.652c0,7.772,5.507,14.096,13.284,14.096h84.579c7.772,0,14.909-6.325,14.909-14.096
			v-79.88v-28.193V59.29c-4.699,3.947-8.862,6.494-14.505,6.494C205.319,65.784,199.906,63.237,196.462,59.29z M216.07,225.544
			c0,2.594-2.105,4.699-4.699,4.699h-84.579c-2.594,0-4.699-2.105-4.699-4.699V79.88c0-2.594,2.105-4.699,4.699-4.699h84.579
			c2.594,0,4.699,2.105,4.699,4.699V225.544z"/>
		<path style="fill:#F8CF26;" d="M154.985,56.386c5.183,0,9.398-4.215,9.398-9.398V32.892h-18.795v14.097
			C145.587,52.171,149.802,56.386,154.985,56.386z"/>
		<path style="fill:#F8CF26;" d="M201.973,46.988c0,5.183,4.215,9.398,9.398,9.398s9.398-4.215,9.398-9.398V32.892h-18.795
			L201.973,46.988L201.973,46.988z"/>
		<circle style="fill:#FFFFFF;" cx="83.69" cy="169.158" r="9.398"/>
		<path style="fill:#FFFFFF;" d="M84.503,187.953c10.366,0,18.795,8.43,18.795,18.795v-37.591
			C103.298,179.524,94.868,187.953,84.503,187.953z"/>
		<circle style="fill:#FFFFFF;" cx="83.69" cy="206.749" r="9.398"/>
		<polygon style="fill:#F8CF26;" points="168.269,23.494 196.462,23.494 216.07,23.494 216.07,14.097 122.093,14.097 
			122.093,23.494 140.076,23.494 		"/>
		<circle style="fill:#FFFFFF;" cx="83.69" cy="131.567" r="9.398"/>
		<path style="fill:#FFFFFF;" d="M58.819,59.708c-3.35,3.35-2.946,8.801,0.404,12.151l44.075,43.666V91.223L71.374,59.708
			C68.024,56.358,62.164,56.358,58.819,59.708z"/>
		<path style="fill:#FFFFFF;" d="M154.172,305.424h108.073V93.977l0,0c-18.166,0-32.892,14.726-32.892,32.892v108.073
			c0,10.38-8.416,18.795-18.795,18.795h-56.386V305.424z"/>
		<path d="M97.786,164.459c0-10.366-8.43-18.795-18.795-18.795s-18.795,8.43-18.795,18.795c0,10.366,8.43,18.795,18.795,18.795
			S97.786,174.825,97.786,164.459z M78.991,173.857c-5.183,0-9.398-4.215-9.398-9.398s4.215-9.398,9.398-9.398
			s9.398,4.215,9.398,9.398C88.388,169.642,84.174,173.857,78.991,173.857z"/>
		<path d="M78.991,183.255c-10.366,0-18.795,8.43-18.795,18.795s8.43,18.795,18.795,18.795s18.795-8.43,18.795-18.795
			S89.352,183.255,78.991,183.255z M78.991,211.448c-5.183,0-9.398-4.215-9.398-9.398s4.215-9.398,9.398-9.398
			s9.398,4.215,9.398,9.398S84.174,211.448,78.991,211.448z"/>
		<path d="M258.359,84.579c-11.23,0-23.494,4.976-28.193,12.809V42.29c0-2.594-4.699-4.699-4.699-4.699V23.494
			c0-2.594-4.699-4.699-4.699-4.699V4.699c0-2.594-2.918-4.699-5.512-4.699H111.883c-2.598,0-3.886,2.105-3.886,4.699v14.097
			c-4.699,0-4.699,2.105-4.699,4.699v14.097c-4.699,0-4.699,2.105-4.699,4.699v30.947l-25.28-24.871
			c-7.011-7.015-18.631-7.015-25.642,0c-7.015,7.015-7.114,18.424-0.103,25.439l34.527,34.579c-1.001-0.164-2.039-0.31-3.087-0.31
			c-10.366,0-18.809,8.43-18.809,18.795s8.425,18.795,18.791,18.795s18.791-8.43,18.791-18.795c0-1.048,0.263-2.058,0.094-3.064
			l0.719,0.31v2.754v37.591v37.591v28.193c0,12.955,9.727,23.494,22.681,23.494h24.307v46.988h9.398v-46.988h50.874
			c12.95,0,24.307-10.539,24.307-23.494v-79.88V122.17c0-13.946,9.398-25.557,23.494-27.803v206.359h9.398V89.278
			C263.058,86.684,260.953,84.579,258.359,84.579z M78.991,136.266c-5.183,0-9.398-4.215-9.398-9.398s4.215-9.398,9.398-9.398
			s9.398,4.215,9.398,9.398S84.174,136.266,78.991,136.266z M187.877,42.29c0,5.183-4.215,9.398-9.398,9.398
			s-9.398-4.215-9.398-9.398V28.193h18.795L187.877,42.29L187.877,42.29z M159.684,42.29c0,5.183-4.215,9.398-9.398,9.398
			s-9.398-4.215-9.398-9.398V28.193h18.795L159.684,42.29L159.684,42.29z M131.491,42.29c0,5.183-4.215,9.398-9.398,9.398
			c-5.183,0-9.398-4.215-9.398-9.398V28.193h18.795V42.29H131.491z M197.275,28.193h18.795V42.29c0,5.183-4.215,9.398-9.398,9.398
			s-9.398-4.215-9.398-9.398L197.275,28.193L197.275,28.193z M117.394,9.398h93.977v9.398h-19.608H163.57h-28.193h-17.982V9.398
			H117.394z M54.524,67.16c-3.35-3.35-3.552-8.801-0.202-12.151s9.106-3.35,12.457,0L98.6,86.524v24.302L54.524,67.16z
			 M220.769,230.243c0,7.772-7.138,14.097-14.909,14.097h-84.58c-7.777,0-13.284-6.325-13.284-14.097V54.591
			c4.699,3.947,8.049,6.494,13.688,6.494c5.639,0,10.446-2.547,13.894-6.494c3.449,3.947,8.355,6.494,13.993,6.494
			s10.596-2.547,14.045-6.494c3.449,3.947,8.434,6.494,14.073,6.494c5.639,0,10.638-2.547,14.082-6.494
			c3.449,3.947,8.857,6.494,14.501,6.494c5.643,0,9.797-2.547,14.496-6.494v67.579v28.193L220.769,230.243L220.769,230.243z"/>
		<path d="M211.371,75.181c0-2.594-2.105-4.699-4.699-4.699h-84.579c-2.594,0-4.699,2.105-4.699,4.699v145.664
			c0,2.594,2.105,4.699,4.699,4.699h84.579c2.594,0,4.699-2.105,4.699-4.699V75.181z M201.973,216.146h-75.181V79.88h75.181V216.146
			z"/>
		<path d="M144.774,197.351h37.591c2.298,0,4.257-1.663,4.633-3.924l4.699-28.193c0.226-1.363-0.155-2.754-1.048-3.811
			s-2.208-1.663-3.585-1.663h-46.988c-1.381,0-2.692,0.606-3.585,1.663c-0.893,1.057-1.273,2.448-1.048,3.811l4.699,28.193
			C140.513,195.688,142.477,197.351,144.774,197.351z M181.515,169.158l-3.134,18.795H148.75l-3.134-18.795H181.515z"/>
		<path d="M163.57,145.664c1.203,0,2.406-0.46,3.322-1.377l18.795-18.795l-6.235-6.644l-10.37,10.774V93.977h-9.398v35.645
			l-11.183-10.774l-6.846,6.644l18.692,18.795C161.267,145.203,162.367,145.664,163.57,145.664z"/>
	</g>
	<g id="Layer_1_17_">
	</g>
</g>
<g>
</g>
<g>
</g>
<g>
</g>
<g>
</g>
<g>
</g>
<g>
</g>
<g>
</g>
<g>
</g>
<g>
</g>
<g>
</g>
<g>
</g>
<g>
</g>
<g>
</g>
<g>
</g>
<g>
</g>
</svg>
